<?xml version="1.0" encoding="utf-8"?>
<!-- Generator: Adobe Illustrator 23.1.0, SVG Export Plug-In . SVG Version: 6.00 Build 0)  -->
<svg version="1.1" id="Layer_1" xmlns="http://www.w3.org/2000/svg" xmlns:xlink="http://www.w3.org/1999/xlink" x="0px" y="0px"
	 viewBox="0 0 49.8 64.8" style="enable-background:new 0 0 49.8 64.8;" xml:space="preserve">
<g>
	<g id="Layer_3">
		<path d="M48.9,47.3L43.8,41c-0.5-0.7-0.8-1.5-0.8-2.4v-10c0-8.1-5.4-15.3-13.2-17.5V5c0-2.8-2.3-5-5-5s-5,2.3-5,5v6
			c-7.9,2.3-13.3,9.5-13.2,17.6v10c0,0.9-0.3,1.7-0.8,2.4l-5.1,6.3C0.3,47.8,0,48.5,0,49.2v7.9h49.8v-7.9
			C49.6,48.5,49.3,47.8,48.9,47.3z M22.7,5c0-1.1,0.9-2,2-2s2,0.9,2,2v5.5c-1.4-0.2-2.7-0.2-4.1,0V5H22.7z M46.6,54H2.8v-4.8
			l5.1-6.3c1-1.2,1.5-2.7,1.5-4.3v-10c0-8.4,6.8-15.3,15.3-15.3S40,20.1,40,28.6v10c0,1.6,0.5,3.1,1.5,4.3l5.1,6.3L46.6,54z"/>
		<path d="M24.7,61.8c-2.9,0-5.2-2.3-5.2-5.2h-3c0,4.5,3.7,8.2,8.2,8.2s8.2-3.7,8.2-8.2h-3C29.9,59.5,27.6,61.8,24.7,61.8z"/>
	</g>
</g>
</svg>
