<?xml version="1.0" encoding="utf-8"?>
<!-- Generator: Adobe Illustrator 23.1.0, SVG Export Plug-In . SVG Version: 6.00 Build 0)  -->
<svg version="1.2" baseProfile="tiny" id="Layer_1" xmlns="http://www.w3.org/2000/svg" xmlns:xlink="http://www.w3.org/1999/xlink"
	 x="0px" y="0px" viewBox="0 0 183 38.921" xml:space="preserve">
<g>
	<path fill="#CF0A2C" d="M45.5,21.949c-0.2,1.6-0.7,2.8-1.4,3.8c-1,1.2-2.6,2-4.8,2H38c-2.2,0-3.8-0.7-4.5-1.8
		c-0.5-0.9-0.6-2.1-0.3-3.7l0.5-3.6c0.3-1.9,1-3.4,2.1-4.4s2.6-1.4,4.5-1.4h1.2c1.3,0,2.9,0.2,3.9,1.3c0.8,1,1,2.3,0.8,4.3
		L45.5,21.949z M41.6,8.749h-1.2c-8.4,0.1-12.8,3.3-13.7,9.4l-0.5,4c-0.4,2.7,0.2,4.8,1.6,6.3c1.8,1.8,4.9,3.2,9.6,3.2h1.2
		c8.2-0.1,12.6-3.2,13.6-8.9l0.1-0.4l0.6-4c0.4-2.8-0.2-5-1.7-6.5C49.4,10.049,46.3,8.849,41.6,8.749"/>
	<path fill="#CF0A2C" d="M112.9,21.949c-0.2,1.6-0.7,2.8-1.5,3.8c-1.1,1.2-2.6,2-4.8,2h-1.3c-2.2,0-3.8-0.7-4.5-1.8
		c-0.4-0.9-0.6-2.1-0.3-3.7l0.5-3.6c0.3-1.9,0.9-3.4,2.1-4.4c1.1-1,2.6-1.4,4.4-1.4h1.2c1.3,0,3,0.2,3.9,1.3c0.8,1,1,2.3,0.8,4.3
		L112.9,21.949z M109.1,8.749h-1.2c-8.4,0.1-12.8,3.3-13.7,9.4l-0.6,4c-0.3,2.7,0.2,4.8,1.6,6.3c1.8,1.8,4.9,3.2,9.6,3.2h1.2
		c8.2-0.1,12.6-3.2,13.6-8.9l0,0l0.1-0.4l0.6-4c0.4-2.8-0.2-5-1.7-6.5C116.9,10.049,113.8,8.849,109.1,8.749"/>
	<path fill="#CF0A2C" d="M175.5,21.949c-0.2,1.6-0.7,2.8-1.5,3.8c-1,1.2-2.6,2-4.8,2h-1.3c-2.2,0-3.8-0.7-4.5-1.8
		c-0.5-0.9-0.6-2.1-0.3-3.7l0.5-3.6c0.3-1.9,1-3.4,2.1-4.4s2.6-1.4,4.5-1.4h1.2c1.3,0,3,0.2,3.9,1.3c0.8,1,1,2.3,0.8,4.3
		L175.5,21.949z M181.2,11.849c-1.8-1.8-4.9-3.1-9.6-3.1h-1.2c-8.4,0.1-12.7,3.3-13.7,9.4l-0.6,4c-0.3,2.7,0.2,4.8,1.6,6.3
		c1.8,1.8,4.9,3.2,9.6,3.2h1.2c8.2-0.1,12.6-3.2,13.6-8.9l0,0l0.1-0.4l0.6-4C183.3,15.549,182.7,13.449,181.2,11.849"/>
	<path fill="#CF0A2C" d="M130.2,15.549l0.7,0.1c0.8,0.1,1.3,0.5,1.6,0.8c0.6,0.6,0.9,1.5,0.7,2.4l-0.9,6.6l0,0l-0.2,1.7v0.1l0,0l0,0
		h4c0.2,0,0.6,0,1-0.1c1.8-0.2,4.7-0.9,5.6-3l0.1-0.2c0.2-0.6,0.3-1.2,0.4-1.8l0.3-2.3l0,0l0.2-1.1c0.1-0.9,0.1-1.7,0-2.5
		c-0.3-2.1-3.1-2.8-4.8-3c-0.4,0-0.7-0.1-1-0.1h-7.1c-1-0.1-1.6-0.2-1.9-0.4c-0.8-0.6-1.3-1.5-1.3-2.8v-0.7h10.7
		c5.3,0.1,8.8,1,10.7,3c1.4,1.5,2,3.5,1.6,6.1l-0.2,1.4l-0.3,2.2l-0.1,1.1c-0.3,1.4-0.7,2.6-1.3,3.6c-0.7,1.1-1.6,2-2.8,2.7
		c-0.4,0.2-0.8,0.4-1.3,0.6c-0.9,0.4-2,0.7-3.2,0.9c-0.4,0.1-0.9,0.1-1.6,0.2c-0.8,0.1-1.8,0.1-2.9,0.1h-8.2c-1.8,0-2.8-0.3-3.4-0.9
		l-0.3-0.4c-0.2-0.3-0.3-0.8-0.2-1.3l0.9-6.1l0.9-7h3.6V15.549z"/>
	<path fill="#CF0A2C" d="M22,27.149h-9.5l0,0c-1.3,0-2.3-0.1-3.1-0.3c-0.8-0.2-1.4-0.5-1.8-1c-0.4-0.3-0.6-0.7-0.7-1.1v-0.1
		l-0.1-0.7c0-0.5,0-1.2,0.1-1.9l0.5-3.4c0.1-0.4,0.1-0.7,0.2-1.1l0.1-0.4l0,0l0.3-0.8l0.1-0.2l0.4-0.6l0.4-0.5
		c0.5-0.6,1.3-1,2.2-1.4c0.9-0.3,2.2-0.5,3.7-0.5h5.3l0,0c1-0.1,1.6-0.2,2.1-0.5s0.9-0.7,1.3-1.1l0.2-0.2c0.3-0.4,0.5-0.9,0.7-1.5
		l0.2-0.7H13.8c-1.2,0-2.3,0.1-3.3,0.2c-5.9,0.8-9.1,3.8-9.9,8.8l-0.5,4c-0.3,2.6,0.2,4.6,1.6,6c1.6,1.7,4.4,2.8,8.5,3h7.2
		c1-0.1,1.9-0.1,2.3-0.4c0.6-0.3,1.1-0.9,1.5-1.5l0.3-0.5C21.5,28.849,21.8,28.049,22,27.149"/>
	<path fill="#CF0A2C" d="M64.9,27.649v0.3c-0.1,0.9-0.6,1.8-1.4,2.4c-0.5,0.4-1.4,0.8-2.6,0.8h-3.6l0.3-2.5l0.1-1l2.4-18.4H63
		c1.9,0,3.1,0.4,3.7,1.3l6.5,9.5l9.2-9.6c0.8-0.8,2.1-1.2,3.9-1.2h3l-2.3,18.4v0.3c-0.1,0.9-0.6,1.8-1.4,2.4
		c-0.5,0.4-1.3,0.9-2.5,0.9h-3.4l1.7-12.8l-7.2,8.4c-0.2,0.2-0.9,0.9-1.7,0.9h-0.1c-0.8,0-1.3-0.7-1.6-1l-4.8-8.3L64.9,27.649z"/>
</g>
</svg>
