<?xml version="1.0" encoding="utf-8"?>
<!-- Generator: Adobe Illustrator 23.1.0, SVG Export Plug-In . SVG Version: 6.00 Build 0)  -->
<svg version="1.1" id="Layer_1" xmlns="http://www.w3.org/2000/svg" xmlns:xlink="http://www.w3.org/1999/xlink" x="0px" y="0px"
	 viewBox="0 0 109.3 122.9" style="enable-background:new 0 0 109.3 122.9;" xml:space="preserve">
<style type="text/css">
	.st0{fill-rule:evenodd;clip-rule:evenodd;fill:#093D64;}
	.st1{fill-rule:evenodd;clip-rule:evenodd;fill:#F97304;}
	.st2{fill:#FFFFFF;}
</style>
<g>
	<path class="st0" d="M82.3,105.3H71.5V90.5H56.1v14.9H45l18.6,17.5L82.3,105.3L82.3,105.3z M102.4,34H83.6c-2,0-4.7-1.1-6-2.4
		c-1.3-1.3-2.1-3.6-2.1-5.6v-19l0,0H25.8c-0.2,0-0.3,0.1-0.4,0.2c-0.1,0.1-0.2,0.2-0.2,0.4v87.7c0,0.1,0.1,0.3,0.2,0.4
		c0.1,0.1,0.3,0.2,0.4,0.2h13c-1,2.2-1.8,4.5-2.2,6.9H23.7c-1.5,0-2.8-0.6-3.7-1.6c-1-1-1.5-2.3-1.5-3.7V5.3c0-1.5,0.6-2.8,1.5-3.7
		c1-1,2.3-1.5,3.7-1.5H79c0.1,0,0.2,0,0.4,0C80,0,80.6,0.3,81,0.6H81c0.1,0.1,0.1,0.1,0.2,0.2l27.3,27.6c0.5,0.5,0.8,1.1,0.8,1.8
		c0,0.2,0,0.4-0.1,0.6c0,25.2,0,41.4,0,66.6c0,1.5-0.6,2.8-1.6,3.7c-1,1-2.3,1.6-3.7,1.6H90c-0.4-2.4-1.2-4.8-2.2-6.9h14.1
		c0.2,0,0.2-0.1,0.3-0.2c0.1-0.1,0.3-0.3,0.3-0.4C102.4,71.8,102.4,57.4,102.4,34L102.4,34z M81.7,25.4V8.1l19.5,19.7H84.2
		c-0.7,0-1.3-0.3-1.7-0.7C82,26.7,81.7,26.1,81.7,25.4L81.7,25.4L81.7,25.4z"/>
	<polygon class="st1" points="0,38.5 88.9,38.5 88.9,81.2 0,81.2 	"/>
	<path class="st2" d="M25.2,61.9l6.2,1.9c-0.4,1.7-1.1,3.2-2,4.3s-2,2-3.3,2.6s-3,0.9-5.1,0.9c-2.5,0-4.5-0.4-6.1-1.1
		c-1.6-0.7-2.9-2-4.1-3.8c-1.1-1.8-1.7-4.1-1.7-7c0-3.8,1-6.7,3-8.7c2-2,4.9-3,8.6-3c2.9,0,5.2,0.6,6.8,1.7s2.9,3,3.7,5.3l-6.3,1.4
		c-0.2-0.7-0.5-1.2-0.7-1.5c-0.4-0.5-0.9-1-1.5-1.2s-1.2-0.4-1.9-0.4c-1.6,0-2.8,0.6-3.7,1.9c-0.6,1-1,2.5-1,4.5
		c0,2.5,0.4,4.3,1.2,5.2c0.8,0.9,1.9,1.4,3.3,1.4c1.4,0,2.4-0.4,3.1-1.1C24.4,64.5,24.9,63.4,25.2,61.9L25.2,61.9z M33.2,63.7
		l6.7-0.4c0.1,1.1,0.4,1.9,0.9,2.5c0.7,0.9,1.8,1.4,3.1,1.4c1,0,1.8-0.2,2.3-0.7c0.5-0.5,0.8-1,0.8-1.6c0-0.6-0.3-1.1-0.8-1.6
		s-1.7-0.9-3.6-1.3c-3.1-0.7-5.3-1.6-6.6-2.8c-1.3-1.2-2-2.6-2-4.4c0-1.2,0.3-2.3,1-3.3s1.7-1.9,3.1-2.5c1.4-0.6,3.3-0.9,5.6-0.9
		c2.9,0,5.2,0.5,6.7,1.6c1.5,1.1,2.5,2.8,2.7,5.2l-6.7,0.4c-0.2-1-0.5-1.8-1.1-2.2c-0.6-0.5-1.3-0.7-2.3-0.7c-0.8,0-1.4,0.2-1.9,0.5
		c-0.4,0.3-0.6,0.8-0.6,1.3c0,0.4,0.2,0.7,0.5,1s1.1,0.6,2.4,0.8c3.1,0.7,5.3,1.3,6.6,2c1.3,0.7,2.3,1.5,2.9,2.5
		c0.6,1,0.9,2.1,0.9,3.4c0,1.5-0.4,2.8-1.2,4c-0.8,1.2-2,2.2-3.4,2.8s-3.3,1-5.5,1c-3.9,0-6.6-0.8-8.1-2.2
		C34.3,67.9,33.4,66,33.2,63.7L33.2,63.7z M55,48.5h7.4l5.2,16.4l5.1-16.4h7.2l-8.5,22.8h-7.7L55,48.5L55,48.5z"/>
</g>
</svg>
