<?xml version="1.0" encoding="utf-8"?>
<!-- Generator: Adobe Illustrator 23.1.0, SVG Export Plug-In . SVG Version: 6.00 Build 0)  -->
<svg version="1.2" baseProfile="tiny" id="Layer_1" xmlns="http://www.w3.org/2000/svg" xmlns:xlink="http://www.w3.org/1999/xlink"
	 x="0px" y="0px" viewBox="0 0 275.005 60.1" xml:space="preserve">
<g>
	<path fill="#1A74BB" d="M63.205,29.7c0-5.2,1.4-9.4,4.2-12.6s6.3-4.7,10.8-4.7c1.4,0,2.8,0.1,4,0.5s2.2,0.8,2.9,1.3
		s1.3,1.1,1.9,1.6c0.5,0.5,0.9,1,1.1,1.3l0.2,0.5h0.2c-0.1-0.7-0.2-1.4-0.2-2.2V0.1h6.3v46.1h-6v-3.1l0.1-2.2h-0.2
		c-0.1,0.2-0.2,0.4-0.4,0.7c-0.2,0.2-0.5,0.8-1.1,1.5c-0.6,0.8-1.3,1.3-2,1.9s-1.8,1-3.1,1.5c-1.3,0.5-2.7,0.7-4.3,0.7
		c-4.4,0-8-1.6-10.6-4.8C64.605,39,63.205,34.8,63.205,29.7z M69.705,29.7c0,3.6,0.9,6.4,2.6,8.6s4,3.2,6.8,3.2c2.7,0,4.9-1,6.8-3
		c1.8-2,2.8-4.9,2.8-8.9c0-3.2-0.8-5.9-2.5-8.3c-1.6-2.3-4-3.5-6.9-3.5c-2.7,0-4.9,1-6.8,3.1C70.605,23.1,69.705,26,69.705,29.7z"/>
	<path fill="#1A74BB" d="M100.105,6.6V0.1h6.4v6.5H100.105z M100.205,46.2v-33h6.3v33H100.205z"/>
	<path fill="#1A74BB" d="M116.205,52.3c2.8,1.5,5.8,2.2,9.1,2.2c3.1,0,5.7-0.8,7.5-2.2c1.9-1.5,2.8-3.8,2.8-7v-2.4l0.1-2.1h-0.1
		c-2,3.4-5.3,5.2-9.8,5.2s-8.1-1.6-10.8-4.8s-4-7.3-4-12.1s1.3-8.8,3.9-12c2.5-3.1,6.1-4.6,10.6-4.6c1.5,0,2.8,0.1,4.1,0.5
		c1.3,0.3,2.2,0.8,3,1.3s1.4,1,1.9,1.5c0.5,0.5,0.9,0.9,1.1,1.3l0.3,0.5h0.1c-0.1-0.3-0.1-0.7-0.1-1v-3.1h6.1V45
		c0,2.6-0.4,4.9-1.4,7s-2.2,3.6-3.8,4.7c-1.6,1.1-3.4,2-5.3,2.6c-1.9,0.6-4,0.8-6.1,0.8c-4,0-7.7-0.9-11.3-2.8L116.205,52.3z
		 M127.105,40.4c2.5,0,4.7-0.9,6.3-2.7c1.6-1.8,2.5-4.7,2.5-8.7c0-7.4-3.1-11.1-9.3-11.1c-2.8,0-5,1-6.7,2.9c-1.6,1.9-2.4,4.6-2.4,8
		c0,3.5,0.9,6.3,2.6,8.4C121.805,39.3,124.205,40.4,127.105,40.4z"/>
	<path fill="#1A74BB" d="M147.305,6.6V0.1h6.4v6.5H147.305z M147.305,46.2v-33h6.4v33H147.305z"/>
	<path fill="#1A74BB" d="M158.305,29.7c0-4.9,1.6-9,5-12.3s7.6-4.9,12.7-4.9c2.5,0,4.7,0.4,6.7,1.2c2.1,0.8,3.5,1.6,4.4,2.5l1.3,1.2
		l-3,4.4c-0.2-0.2-0.7-0.6-1.1-1c-0.5-0.5-1.6-1-3.1-1.7c-1.6-0.7-3.2-1-4.9-1c-3.3,0-6.1,1.1-8.2,3.4s-3.3,5-3.3,8.4
		s1.1,6.2,3.3,8.5c2.2,2.2,5,3.4,8.4,3.4c1.8,0,3.6-0.4,5.3-1.1s2.9-1.5,3.7-2.2l1.2-1.1l2.5,4.6c-0.1,0.2-0.3,0.3-0.5,0.5
		s-0.8,0.7-1.6,1.3s-1.7,1.1-2.7,1.6s-2.2,0.9-3.7,1.3s-3.1,0.6-4.7,0.6c-5.2,0-9.4-1.6-12.8-4.9
		C160.005,38.8,158.305,34.7,158.305,29.7z"/>
	<path fill="#1A74BB" d="M190.005,29.7c0-5.2,1.6-9.3,4.7-12.6c3.1-3.2,7.1-4.8,11.9-4.8c4.5,0,8,1.5,10.5,4.4s3.8,6.6,3.8,11.1
		l-0.2,2.8h-24.1c0.1,3.5,1.4,6.2,3.5,8.1c2.2,1.9,4.8,2.8,7.9,2.8c1.7,0,3.4-0.3,5-1s2.8-1.3,3.7-1.9l1.2-1l2.6,4.6
		c-0.4,0.4-0.9,0.8-1.6,1.3s-2.2,1.2-4.4,2.1c-2.2,0.9-4.5,1.3-6.9,1.3c-5.2,0-9.3-1.6-12.6-4.9
		C191.605,38.8,190.005,34.6,190.005,29.7z M196.705,25.8h17.7c-0.1-2.8-0.9-4.9-2.4-6.3s-3.4-2.2-5.6-2.2c-2.5,0-4.6,0.8-6.4,2.2
		C198.305,21.1,197.205,23.2,196.705,25.8z"/>
	<path fill="#1A74BB" d="M225.405,46.2v-33h6.1V19l-0.1,2.5h0.1c0.8-2.5,2.1-4.6,4-6.2s4-2.4,6.5-2.4l1.6,0.1v6.3
		c-0.6-0.1-1.2-0.2-1.8-0.2c-2,0-3.9,0.7-5.6,2.1s-2.9,3.3-3.7,5.7c-0.5,1.7-0.8,3.7-0.8,6v13.5L225.405,46.2L225.405,46.2
		L225.405,46.2z"/>
	<path fill="#1A74BB" d="M251.805,34.1V18.7h-4.3v-5.1h4.5V4h6.1v9.6h8v5.1h-8v14.7c0,1.3,0.1,2.4,0.5,3.3c0.4,1,0.8,1.6,1.3,2.2
		c0.5,0.5,1.1,1,1.8,1.3s1.3,0.5,1.8,0.6s1.1,0.2,1.6,0.2l1.5-0.2v5.6c-0.6,0.1-1.4,0.2-2.2,0.2c-1,0-2-0.1-3-0.2s-2-0.5-3.3-1
		c-1.2-0.5-2.2-1.2-3.1-2.1c-0.9-0.8-1.6-2.1-2.3-3.7C252.105,38,251.805,36.2,251.805,34.1z"/>
	<g>
		<path fill="#1A74BB" d="M268.005,2h2.2c0.8,0,1,0.1,1.2,0.2c0.6,0.2,0.8,0.9,0.8,1.4c0,0.6-0.3,1.2-0.8,1.4
			c-0.2,0.1-0.4,0.2-0.6,0.2l0,0c0.5,0.3,0.7,0.4,1.1,1.3l0.7,1.1h-1.3l-0.8-1.2c-0.6-1.1-0.7-1.1-1.4-1.1h-0.1v2.4h-1V2L268.005,2z
			 M269.105,4.3h0.8c0.3,0,0.8,0,1-0.1c0.4-0.2,0.4-0.5,0.4-0.7s-0.1-0.5-0.3-0.6c-0.2-0.2-0.3-0.2-1-0.2h-1L269.105,4.3
			L269.105,4.3z"/>
		<path fill="#1A74BB" d="M270.205,0c-2.7,0-4.8,2.2-4.8,4.8s2.2,4.8,4.8,4.8s4.8-2.2,4.8-4.8C275.005,2.1,272.805,0,270.205,0
			 M270.205,8.6c-2.2,0-3.9-1.7-3.9-3.9c0-2.1,1.7-3.9,3.9-3.9c2.1,0,3.8,1.7,3.8,3.9S272.305,8.6,270.205,8.6"/>
	</g>
	<g>
		<path fill="#1A74BB" d="M58.405,34.5c-1-10.8-8.5-18.2-14.1-26c2.4-3.6,7.8-2.5,11.8-1.6c-5.1-3.5-11.1-5.6-17.5-6.2
			c-12.3-0.2-21.9,6.9-31,14.8c-5.3-2-1.6-7.8-1.5-11.8c-4.7,6.4-6.2,13.4-6.1,20.8c0.2,6.6,3,12.9,6.7,18.7c2.6,3,5.2,6,7.9,9
			c-2.5,4.4-7.8,2.5-11.8,1.6c6.3,4.6,13.4,6.1,20.8,6c6.6-0.2,12.9-3,18.6-6.7c3-2.6,6-5.3,9-7.9c2.6,3.1,3.2,8.1,1.6,11.8
			C57.405,50.7,59.005,42.8,58.405,34.5z M49.805,34.8c-2.2,2.8-5.1,6.3-5.1,6.3c-2.8,3.2-5.3,4.8-6.3,5.6
			c-3.8,2.9-8.5,4.6-13.1,4.7c0,0-0.5,0-1.1-0.1l-0.2-0.2c-2.2-2.2-5.2-5.3-5.2-5.3c-1.7-1.9-3.1-3-5.3-6.1
			c-2.8-3.9-4.6-8.5-4.7-13.1c0,0,0-0.7,0-1.5V25l5.3-4.7c6.2-5.5,12.9-10.4,21.3-10.4h0.3l4,5.5c4,5.5,9.3,10.6,9.9,18.2
			C49.705,33.4,49.905,34.6,49.805,34.8z"/>
	</g>
</g>
</svg>
