<?xml version="1.0" encoding="utf-8"?>
<!-- Generator: Adobe Illustrator 23.1.0, SVG Export Plug-In . SVG Version: 6.00 Build 0)  -->
<svg version="1.2" baseProfile="tiny" id="Layer_1" xmlns="http://www.w3.org/2000/svg" xmlns:xlink="http://www.w3.org/1999/xlink"
	 x="0px" y="0px" viewBox="0 0 183 38.98" xml:space="preserve">
<g>
	<path fill="#096CB2" d="M14.3,12.914c3.1-2.2,6.4-3,9.2-2.6v-5H0v23.9h8c-0.1-0.2-0.2-0.3-0.3-0.5
		C5.5,24.014,8.5,16.914,14.3,12.914"/>
	<path fill="#2D2E2F" d="M59.2,11.814c-0.6-2.7-2.9-3.5-5.4-3.5c-5.6,0-7.6,4.9-7.5,9.2c0.2,5.9,2,9.1,8.5,9.2
		c1.6,0,3.1-0.2,4.5-0.7v-6.4h-5.2v-2.7h8.3v11.4c-2.4,0.7-5,1.3-7.6,1.3c-3.2,0-5.8-0.4-8.3-2.6s-3.4-6.1-3.4-9.3
		c0-2.4,0.8-5,1.9-7.1c2-3.5,5.3-4.9,9.2-4.9s8.1,1.8,8.3,6.2L59.2,11.814L59.2,11.814z"/>
	<path fill="#2D2E2F" d="M69,21.714c-0.2,2.8,0.9,5.7,4,5.7c2.3,0,3.5-0.9,3.8-3.2H80c-0.5,3.6-3.2,5.4-7,5.4
		c-5.1,0-7.1-3.6-7.1-8.3s2.3-8.6,7.4-8.6c4.7,0.1,7,3.1,7,7.5v1.5H69z M77,19.614c0.1-2.7-1.1-4.7-4-4.7c-2.5,0-4,2.1-4,4.7H77z"/>
	<path fill="#2D2E2F" d="M98.1,21.114c0,5-2.7,8.5-7.9,8.5c-5.2,0-7.9-3.5-7.9-8.5s2.7-8.4,7.9-8.4
		C95.4,12.614,98.1,16.114,98.1,21.114 M90.2,27.414c3.6,0,4.7-2.9,4.7-6.3s-1.2-6.2-4.7-6.2c-3.6,0-4.7,2.9-4.7,6.2
		C85.5,24.514,86.6,27.414,90.2,27.414"/>
	<polygon fill="#2D2E2F" points="101.4,10.614 94.4,10.614 94.4,6.114 114.9,6.114 114.9,10.614 107.7,10.614 107.7,29.114 
		101.4,29.114 	"/>
	<path fill="#2D2E2F" d="M118.2,16.114L118.2,16.114c0.7-2.6,2.7-3.5,5.4-3.5v5.1c-0.4,0-0.9,0-1.3,0c-3.1,0-4.2,1.9-4.1,5v6.4h-6
		v-11.9c0-1.4,0-2.4-0.2-4.1h6.1L118.2,16.114z"/>
	<path fill="#2D2E2F" d="M137.1,27.314c-1.4,1.6-2.9,2.2-5,2.2c-3.4,0-5.9-2.2-5.9-5.8v-10.6h6v9.4c0.1,1.6,0.4,3.2,2.3,3.2
		c3,0,2.6-3.3,2.6-3.5v-9.2h6v11.9c0,1.4,0,2.4,0.2,4.1h-6.1L137.1,27.314z"/>
	<path fill="#2D2E2F" d="M155.6,18.014c0-0.5-0.1-1-0.4-1.3c-0.3-0.4-0.8-0.6-1.6-0.6c-0.9,0-1.4,0.5-1.4,1.4c0,1.2,2.4,1.1,6.2,2.3
		c1.9,0.6,3.2,1.8,3.2,4.4c0,4.2-3.9,5.3-7.6,5.3c-3.9,0-7.7-0.8-7.6-5.7h5.7c-0.1,0.5,0.1,1,0.4,1.4c0.3,0.4,0.8,0.7,1.4,0.7
		c1.2,0,2-0.4,2-1.5c0-2.8-9.4-1.1-9.4-6.9c0-3.9,4.2-5,7.3-5c3.8,0,7.2,1,7.5,5.4h-5.7L155.6,18.014L155.6,18.014z"/>
	<path fill="#2D2E2F" d="M166.2,13.114v-2.4l6-2.3v4.7h3.5v3.8h-3.5v6.3c0,0.4-0.2,2.5,1.1,2.5c0.8,0,1.6,0,2.3-0.1v3.6
		c-1.4,0.3-2.3,0.3-3.2,0.3c-4.1,0-6.5-0.6-6.2-5.5v-7.1h-3.1v-3.8C163.1,13.114,166.2,13.114,166.2,13.114z"/>
	<path fill="#2D2E2F" d="M183,14.714c0,0.6-0.2,1.1-0.7,1.5c-0.4,0.4-0.9,0.7-1.5,0.7s-1.1-0.2-1.5-0.7c-0.4-0.4-0.6-0.9-0.6-1.5
		s0.2-1.1,0.6-1.6c0.4-0.4,0.9-0.7,1.5-0.7s1.1,0.2,1.5,0.7C182.8,13.614,183,14.114,183,14.714 M182.5,14.714
		c0-0.5-0.2-0.9-0.5-1.2c-0.3-0.4-0.7-0.5-1.2-0.5s-0.9,0.2-1.2,0.5s-0.5,0.7-0.5,1.2s0.2,0.9,0.5,1.2c0.3,0.4,0.7,0.5,1.2,0.5
		s0.8-0.2,1.2-0.5C182.3,15.614,182.5,15.214,182.5,14.714 M181.1,15.914v-0.4c0-0.2,0-0.3-0.1-0.4s-0.1-0.2-0.3-0.2h-0.1v1h-0.3
		H180v-2.4h0.9c0.2,0,0.4,0,0.5,0.1s0.2,0.2,0.2,0.4v0.1v0.1c0,0.1,0,0.2-0.1,0.3c-0.1,0.1-0.1,0.1-0.3,0.2c0.2,0.1,0.3,0.2,0.3,0.3
		c0.1,0.1,0.1,0.3,0.1,0.4v0.4h-0.5L181.1,15.914L181.1,15.914z M181.1,14.314L181.1,14.314L181.1,14.314c0-0.2,0-0.2-0.1-0.3
		c0-0.1-0.1-0.1-0.2-0.1h-0.2h-0.2v0.7h0.3c0.1,0,0.1,0,0.2-0.1C181.1,14.414,181.1,14.414,181.1,14.314"/>
	<path fill="#F37122" d="M23.4,13.114c-6.2,0-11.2,5.1-11.2,11.3c0,0.7,0.1,1.4,0.2,2.1c0.3,1.2,0.9,1.6,1.5,1.8
		c0.3,0.1,0.6,0.2,0.7,0.2c1.2,0.1,2.4-0.2,3.6-0.9c1.6-1,2.8-2.6,3.4-4.5c-2,0.2-3.9,0.5-5.7,0.9v-3.5l12.6-0.9l-0.1,12l-3.8,0.3
		l0,0c0-0.1,0-0.2,0.1-0.4c0.1-1,0.3-2,0.4-3.1c0-0.6,0.1-1.2,0.1-1.8c-0.5,0.6-1,1.2-1.7,1.8c-0.6,0.5-1.2,1-1.9,1.4
		c-0.4,0.2-0.8,0.5-1.2,0.7c-0.9,0.4-1.7,0.7-2.6,1c-0.7,0.2-2,0.3-3,0.3c2.1,2.4,5.1,3.9,8.5,3.9c6.2,0,11.2-5.1,11.2-11.3
		C34.7,18.114,29.7,13.114,23.4,13.114"/>
</g>
</svg>
